<svg width="178" height="133" viewBox="0 0 178 133" fill="none" xmlns="http://www.w3.org/2000/svg">
<path fill-rule="evenodd" clip-rule="evenodd" d="M6.52654 104.727C10.8776 109.085 16.1081 111.264 22.218 111.264H76.1162C76.3428 110.349 76.7292 109.458 77.2831 108.63L111.09 58.0998V44.5056C111.09 38.386 108.915 33.1474 104.563 28.7895C100.212 24.4317 94.982 22.2528 88.872 22.2528H22.218C16.1081 22.2528 10.8776 24.4317 6.52654 28.7895C2.17551 33.1474 0 38.386 0 44.5056V89.0112C0 95.1307 2.17551 100.369 6.52654 104.727ZM111.09 65.5951L80.7439 110.953C80.6757 111.055 80.6125 111.158 80.5545 111.264H88.872C94.982 111.264 100.212 109.085 104.563 104.727C108.915 100.369 111.09 95.1307 111.09 89.0112V65.5951ZM88.872 44.5056H22.218C20.1814 44.5056 18.2373 44.7374 16.3858 45.201C14.5343 45.6646 12.7754 46.4063 11.109 47.4262V44.5056C11.109 41.4458 12.1968 38.8265 14.3723 36.6475C16.5478 34.4686 19.163 33.3792 22.218 33.3792H88.872C91.927 33.3792 94.5422 34.4686 96.7177 36.6475C98.8933 38.8265 99.981 41.4458 99.981 44.5056V47.4262C98.3147 46.4063 96.5557 45.6646 94.7042 45.201C92.8527 44.7374 90.9087 44.5056 88.872 44.5056ZM73.736 77.6066L11.9422 62.586C12.7754 60.4534 14.0945 58.7613 15.8998 57.5095C17.705 56.2578 19.8111 55.632 22.218 55.632H88.872C90.7235 55.632 92.4361 56.0724 94.0099 56.9532C95.5837 57.8341 96.8798 58.9699 97.8981 60.3607L78.5962 76.494C77.8556 77.0503 77.0687 77.4212 76.2355 77.6066C75.4024 77.792 74.5692 77.792 73.736 77.6066Z" fill="white"/>
<path fill-rule="evenodd" clip-rule="evenodd" d="M125.627 45.653C125.169 45.3452 124.548 45.4678 124.241 45.9268L115.524 58.9578L132.835 70.5769L141.553 57.5462C141.86 57.0872 141.737 56.4656 141.278 56.1578L125.627 45.653ZM130.518 74.0413L113.206 62.4221L78.9809 113.582C78.6738 114.041 78.7966 114.662 79.2552 114.97L94.9061 125.475C95.3647 125.783 95.9854 125.66 96.2925 125.201L130.518 74.0413Z" fill="white"/>
<path d="M157.753 13.7305C158.133 13.4311 158.674 13.7943 158.542 14.2606L154.525 28.4681C154.466 28.6766 154.548 28.8996 154.727 29.0203L166.981 37.2448C167.383 37.5147 167.205 38.1421 166.722 38.1604L151.985 38.7166C151.769 38.7248 151.583 38.8715 151.524 39.08L147.506 53.2876C147.374 53.7539 146.723 53.7784 146.556 53.3234L141.467 39.4597C141.392 39.2562 141.195 39.1239 140.979 39.1321L126.242 39.6884C125.759 39.7066 125.534 39.0944 125.914 38.7949L137.505 29.6704C137.675 29.5364 137.74 29.308 137.665 29.1045L132.575 15.2407C132.408 14.7857 132.92 14.3828 133.322 14.6527L145.575 22.8772C145.755 22.9979 145.992 22.989 146.162 22.8551L157.753 13.7305Z" fill="white"/>
</svg>
